<svg
	viewBox="-1 -1 22 22"
	xmlns="http://www.w3.org/2000/svg"
	xmlns:svg="http://www.w3.org/2000/svg"
>
	<defs>
		<linearGradient id="gradient" x1="0" x2="1" y1="0.4" y2="1">
			<stop class="stop1" offset="0%"/>
			<stop class="stop2" offset="70%"/>
		</linearGradient>
	</defs>
	<style xmlns="http://www.w3.org/2000/svg">
		circle { fill: black; }
		path {
			fill: white;	
			stroke-width: .2;	
<!-- 			stroke: black; -->
<!-- 			fill:url(#gradient); -->
		}
		.stop1 { stop-color: #5BF; }
		.stop2 { stop-color: #E04; }

		@media (prefers-color-scheme: dark)  {
            		circle { fill: white; }
            		path { fill: black; stroke-width: .2;}
			.stop1 { stop-color: #0FF; }
			.stop2 { stop-color: #F0C; }
		}
	</style>
	<circle cx="10" cy="10" r="10" />
	<path d="
		M 7 18.6
		C 5.5 18 5 17 5.25 16.5
		C 6 15.5 7 16 7 17
		C 7.6 18 8.6 17.7 8.8 16
		C 9 16 9 9.8 8.9 10
		C 9 9 8.7 4 9.5 2.5
		C 10.4 1 12 0.9 13.2 1.3
		C 14.3 1.8 14.7 2.5 14.36 3.1
		C 14 4 12.8 3.8 12.6 3
		C 12.3 2.1 11.4 2.2 11 3
		C 10.6 3.6 10.8 9 10.8 9.5
		C 10.8 9.9 11 14.8 10.4 16.6
		C 10 18.3 9 18.9 7 18.6
		Z
		M 0 10
		C 0 16 4 20 10 20
		C 16 20 20 16 20 10
		C 20 4 16 0 10 0
		C 4 0 0 5 0 10
		Z
	"
	/>
</svg>
